<svg xmlns="http://www.w3.org/2000/svg" width="32" height="32" viewBox="0 0 32 32">
  <g fill="none" fill-rule="evenodd">
    <path d="M2 2 L2 22 L8 17 L11 24 L15 22 L12 15 L20 15 Z" fill="#8B5CF6" stroke="#1C1130" stroke-width="1.5" stroke-linejoin="round"/>
    <g transform="translate(13 3)">
      <ellipse cx="8" cy="10" rx="7.2" ry="6.6" fill="#FFE066" stroke="#3B2A00" stroke-width="1"/>
      <path d="M2 6 C1 3 2.5 1 4.5 1.5 C4 3 4 4.5 4.5 5.5 Z" fill="#FFE066" stroke="#3B2A00" stroke-width="1"/>
      <path d="M14 6 C15 3 13.5 1 11.5 1.5 C12 3 12 4.5 11.5 5.5 Z" fill="#FFE066" stroke="#3B2A00" stroke-width="1"/>
      <path d="M4 8.6 Q5.4 7.4 6.8 8.6" stroke="#1C1130" stroke-width="1.1" stroke-linecap="round" fill="none"/>
      <path d="M9.2 8.6 Q10.6 7.4 12 8.6" stroke="#1C1130" stroke-width="1.1" stroke-linecap="round" fill="none"/>
      <path d="M5 14 Q8 16.5 11 14" stroke="#F2A73B" stroke-width="1.6" stroke-linecap="round" fill="none"/>
    </g>
    <circle cx="24" cy="6" r="3" fill="#B266FF" opacity="0.55"/>
  </g>
</svg>
